<?xml version="1.0" standalone="no"?> <!DOCTYPE svg PUBLIC "-//W3C//DTD SVG 1.0//EN" "http://www.w3.org/TR/2001/REC-SVG-20010904/DTD/svg10.dtd" > <svg xmlns="http://www.w3.org/2000/svg" width="100%" height="100%">
<defs >
<font id="metriclightitalic" horiz-adv-x="946" ><font-face
    font-family="Metric Light"
    units-per-em="2048"
    panose-1="2 11 3 3 3 2 2 13 2 3"
    ascent="1331"
    descent="-717"
    alphabetic="0" />
<missing-glyph horiz-adv-x="1245" />
<glyph unicode=" " glyph-name="space" horiz-adv-x="452" />
<glyph unicode="!" glyph-name="exclam" horiz-adv-x="421" d="M170 393L305 1257H420L246 393H170ZM74 72Q74 106 97 129T152 152Q183 152 205 129T227 72Q227 40 205 17T152 -6Q120 -6 97 17T74 72Z" />
<glyph unicode="&quot;" glyph-name="quotedbl" horiz-adv-x="452" d="M150 856L221 1257H313L242 856H150ZM346 856L418 1257H510L438 856H346Z" />
<glyph unicode="#" glyph-name="numbersign" horiz-adv-x="1134" d="M1024 473L1008 391H764L645 0H555L674 391H381L262 0H174L293 391H94L111 473H317L412 784H176L193 866H436L555 1257H645L526 866H817L938 1257H1026L907 866H1106L1087 784H883L788 473H1024ZM502
784L406 473H698L793 784H502Z" />
<glyph unicode="$" glyph-name="dollar" horiz-adv-x="897" d="M20 150L41 262Q176 121 377 121Q523 121 611 188T700 373Q700 437 660 478T528 563L367 637Q324 657 291 677T225 728T173 801T154 893Q154 973 188 1038T278 1144T402 1206T543 1231L578 1423H670L635
1227Q792 1207 883 1128L862 1020Q745 1137 561 1137Q431 1137 344 1078T256 903Q256 840 297 800T426 721L596 643Q700 595 750 533T801 383Q801 232 695 137T424 29L387 -174H295L332 27Q230 34 150 67T20 150Z" />
<glyph unicode="%" glyph-name="percent" horiz-adv-x="1269" d="M401 1276Q507 1276 579 1204T651 1026Q651 920 574 838T385 756Q279 756 206 827T133 1004Q133 1111 211 1193T401 1276ZM387 842Q458 842 511 895T565 1024Q565 1091 516 1139T397 1188Q326 1188
274 1135T221 1006Q221 938 269 890T387 842ZM88 0L1102 1257H1198L184 0H88ZM887 -18Q781 -18 708 54T635 231Q635 338 712 420T903 502Q1009 502 1081 430T1153 254Q1153 147 1076 65T887 -18ZM899 416Q828 416 776 363T723 233Q723 165 771 118T889 70Q960 70
1013 123T1067 252Q1067 319 1018 367T899 416Z" />
<glyph unicode="&amp;" glyph-name="ampersand" horiz-adv-x="1148" d="M647 1276Q724 1276 794 1252T915 1186L895 1079Q785 1186 647 1186Q536 1186 462 1120T387 938Q387 877 414 825T500 700L827 285Q924 418 958 606L1055 604Q1016 379 883 215L1055 0H934L817
145Q647 -18 424 -18Q261 -18 160 75T59 319Q59 456 144 562T365 715Q287 824 287 934Q287 1087 392 1181T647 1276ZM424 70Q622 70 766 211L420 643Q306 613 233 525T160 319Q160 209 234 140T424 70Z" />
<glyph unicode="&apos;" glyph-name="quotesingle" horiz-adv-x="258" d="M150 856L221 1257H315L244 856H150Z" />
<glyph unicode="(" glyph-name="parenleft" horiz-adv-x="665" d="M74 434Q74 760 261 1000T770 1331L752 1227Q487 1141 331 932T174 434Q174 239 265 110T524 -70L506 -172Q301 -113 188 45T74 434Z" />
<glyph unicode=")" glyph-name="parenright" horiz-adv-x="665" d="M639 725Q639 399 452 159T-57 -172L-39 -68Q226 18 382 227T539 725Q539 920 447 1049T188 1229L207 1331Q412 1272 525 1114T639 725Z" />
<glyph unicode="*" glyph-name="asterisk" horiz-adv-x="645" d="M416 770L350 782L387 999L182 924L160 985L367 1061L197 1204L240 1251L408 1112L444 1329L512 1317L473 1100L680 1176L702 1114L496 1038L666 895L623 846L455 987L416 770Z" />
<glyph unicode="+" glyph-name="plus" horiz-adv-x="1052" d="M571 983H659L600 647H938L924 559H584L526 223H438L496 559H162L176 647H512L571 983Z" />
<glyph unicode="," glyph-name="comma" horiz-adv-x="288" d="M-88 -207L61 2Q38 7 23 26T8 72Q8 106 30 128T84 150Q118 150 140 128T162 70Q162 31 125 -18L-10 -207H-88Z" />
<glyph unicode="-" glyph-name="hyphen" horiz-adv-x="657" d="M88 485L104 580H598L582 485H88Z" />
<glyph unicode="." glyph-name="period" horiz-adv-x="288" d="M8 72Q8 105 30 128T84 152Q116 152 139 129T162 72Q162 40 139 17T84 -6Q53 -6 31 17T8 72Z" />
<glyph unicode="/" glyph-name="slash" horiz-adv-x="626" d="M-98 -172L672 1331H776L4 -172H-98Z" />
<glyph unicode="0" glyph-name="zero" horiz-adv-x="1095" d="M500 78Q629 78 733 179T894 441T950 786Q950 967 876 1073T666 1180Q537 1180 432 1079T271 817T215 471Q215 290 290 184T500 78ZM502 -18Q321 -18 217 114T113 471Q113 685 183 869T382 1164T666
1276Q845 1276 949 1144T1053 786Q1053 572 983 388T785 93T502 -18Z" />
<glyph unicode="1" glyph-name="one" horiz-adv-x="657" d="M625 1260L403 0H299L498 1130L139 963L158 1073L559 1260H625Z" />
<glyph unicode="2" glyph-name="two" horiz-adv-x="894" d="M182 96H776L760 0H-35V8L457 485Q469 497 524 549T601 625T667 699T730 786T767 874T784 975Q784 1070 728 1124T557 1178Q368 1178 170 1001L190 1120Q268 1190 370 1233T578 1276Q728 1276 807 1198T887
985Q887 824 750 658Q697 594 553 454Q540 441 530 432L182 96Z" />
<glyph unicode="3" glyph-name="three" horiz-adv-x="892" d="M199 1161L215 1257H954V1249L504 754Q641 741 728 654T815 428Q815 243 677 113T346 -18Q143 -18 10 94L31 211Q84 145 167 111T346 76Q498 76 607 175T717 428Q717 547 629 615T395 684Q358 684
338 682V690L764 1161H199Z" />
<glyph unicode="4" glyph-name="four" horiz-adv-x="1024" d="M748 1257L207 401H651L707 713H807L752 401H983L969 307H735L682 0H582L635 307H43V315L637 1257H748Z" />
<glyph unicode="5" glyph-name="five" horiz-adv-x="890" d="M825 436Q825 314 762 210T590 44T350 -18Q144 -18 14 92L37 209Q146 76 350 76Q502 76 614 177T727 432Q727 547 649 613T444 680Q384 680 329 670T249 650T164 618L279 1257H909L893 1161H348L276
741Q354 772 459 772Q622 772 723 682T825 436Z" />
<glyph unicode="6" glyph-name="six" horiz-adv-x="980" d="M475 -18Q306 -18 194 92T82 371Q82 463 116 549T236 741L655 1257H774L387 782Q451 823 537 823Q707 823 815 713T924 440Q924 246 791 114T475 -18ZM475 76Q616 76 720 180T825 436Q825 564 741 648T530
733Q388 733 284 630T180 375Q180 247 263 162T475 76Z" />
<glyph unicode="7" glyph-name="seven" horiz-adv-x="897" d="M1014 1249L223 0H111L846 1161H170L188 1257H1014V1249Z" />
<glyph unicode="8" glyph-name="eight" horiz-adv-x="985" d="M160 319Q160 211 245 142T455 72Q606 72 708 158T811 373Q811 487 724 556T506 625Q361 625 261 537T160 319ZM453 -18Q377 -18 307 3T180 63T89 167T55 313Q55 449 148 551T381 682Q307 715 263
779T219 928Q219 1072 333 1174T618 1276Q766 1276 867 1196T969 979Q969 867 894 779T702 657Q799 619 856 544T913 369Q913 202 777 92T453 -18ZM866 975Q866 1071 795 1128T618 1186Q491 1186 405 1110T319 924Q319 829 392 771T569 713Q696 713 781 790T866
975Z" />
<glyph unicode="9" glyph-name="nine" horiz-adv-x="980" d="M575 1276Q744 1276 856 1165T969 887Q969 795 935 709T815 516L395 0H276L664 475Q597 434 514 434Q344 434 236 544T127 817Q127 1011 260 1143T575 1276ZM575 1182Q434 1182 330 1078T225 821Q225
693 309 609T520 524Q663 524 766 627T870 883Q870 1011 787 1096T575 1182Z" />
<glyph unicode=":" glyph-name="colon" horiz-adv-x="288" d="M8 72Q8 105 30 128T84 152Q116 152 139 129T162 72Q162 40 139 17T84 -6Q53 -6 31 17T8 72ZM127 745Q127 779 149 802T203 825Q236 825 258 802T281 745Q281 713 258 691T203 668Q172 668 150 690T127 745Z" />
<glyph unicode=";" glyph-name="semicolon" horiz-adv-x="288" d="M-88 -207L61 2Q38 7 23 26T8 72Q8 106 30 128T84 150Q118 150 140 128T162 70Q162 31 125 -18L-10 -207H-88ZM127 745Q127 779 149 802T203 825Q236 825 258 802T281 745Q281 713 258 691T203
668Q172 668 150 690T127 745Z" />
<glyph unicode="&lt;" glyph-name="less" horiz-adv-x="813" d="M133 551L150 647L766 954L748 850L227 594L657 340L641 244L133 551Z" />
<glyph unicode="=" glyph-name="equal" horiz-adv-x="1067" d="M145 430L162 516H924L909 430H145ZM193 692L207 778H969L954 692H193Z" />
<glyph unicode="&gt;" glyph-name="greater" horiz-adv-x="813" d="M727 647L711 551L94 244L113 348L633 604L203 860L219 954L727 647Z" />
<glyph unicode="?" glyph-name="question" horiz-adv-x="847" d="M522 629Q532 638 574 677T634 732T684 785T731 850T759 915T772 991Q772 1079 716 1128T553 1178Q355 1178 154 989L174 1108Q249 1180 354 1228T563 1276Q711 1276 792 1202T874 997Q874 950
861 905T832 829T781 756T726 694T658 630T594 569Q538 518 513 482T475 395H375Q391 464 424 515T522 629ZM283 72Q283 106 305 129T360 152Q391 152 413 129T436 72Q436 40 414 17T360 -6Q328 -6 306 17T283 72Z" />
<glyph unicode="@" glyph-name="at" horiz-adv-x="1585" d="M1149 778L1024 256Q1011 196 1031 165T1116 133Q1249 133 1342 253T1436 584Q1436 798 1284 932T885 1067Q730 1067 595 1009T366 851T218 615T164 326Q164 210 200 115T297 -44T440 -152T614 -216T805
-236Q1048 -236 1245 -143L1235 -227Q1038 -315 803 -315Q687 -315 583 -292T385 -219T223 -94T116 87T76 326Q76 493 136 644T302 907T559 1085T885 1151Q1171 1151 1346 991T1522 584Q1522 456 1486 352T1389 185T1255 87T1102 53Q1029 53 981 87T924 180Q882
129 819 94T692 59Q574 59 510 134T446 330Q446 445 495 551T636 726T842 795Q912 795 962 761T1034 678L1059 778H1149ZM940 287L1008 571Q988 632 945 670T842 709Q753 709 682 651T575 507T539 334Q539 245 585 194T711 143Q830 143 940 287Z" />
<glyph unicode="A" glyph-name="A" horiz-adv-x="1185" d="M717 1257H815L1069 0H967L883 416H330L86 0H-25L717 1257ZM743 1122L383 508H864L743 1122Z" />
<glyph unicode="B" glyph-name="B" horiz-adv-x="1071" d="M786 647Q878 629 933 561T989 395Q989 211 856 106T514 0H92L313 1257H698Q870 1257 958 1186T1047 979Q1047 908 1024 849T962 751T879 686T786 647ZM315 692H598Q758 692 851 763T944 971Q944 1163
680 1163H397L315 692ZM299 602L211 94H539Q698 94 791 176T885 395Q885 492 820 547T627 602H299Z" />
<glyph unicode="C" glyph-name="C" horiz-adv-x="1095" d="M944 188L922 68Q790 -18 608 -18Q385 -18 247 135T109 537Q109 738 192 907T428 1176T768 1276Q979 1276 1114 1155L1094 1042Q962 1178 768 1178Q611 1178 484 1094T286 863T215 537Q215 334 324 207T608
80Q795 80 944 188Z" />
<glyph unicode="D" glyph-name="D" horiz-adv-x="1241" d="M213 96H487Q748 96 919 275T1090 735Q1090 934 981 1047T670 1161H399L213 96ZM92 0L313 1257H682Q926 1257 1061 1117T1196 735Q1196 523 1101 355T840 93T471 0H92Z" />
<glyph unicode="E" glyph-name="E" horiz-adv-x="1054" d="M313 1257H1092L1075 1161H397L315 694H930L913 600H299L211 96H887L870 0H92L313 1257Z" />
<glyph unicode="F" glyph-name="F" horiz-adv-x="968" d="M197 0H92L313 1257H1040L1024 1161H399L315 682H907L889 588H299L197 0Z" />
<glyph unicode="G" glyph-name="G" horiz-adv-x="1202" d="M618 -18Q388 -18 249 135T109 537Q109 737 192 906T428 1175T768 1276Q993 1276 1153 1145L1133 1032Q985 1178 768 1178Q612 1178 485 1094T287 864T215 537Q215 332 324 205T618 78Q812 78 946 180L1012
549H696L711 637H1124L1038 139Q871 -18 618 -18Z" />
<glyph unicode="H" glyph-name="H" horiz-adv-x="1329" d="M1214 1257H1319L1098 0H993L1100 600H301L197 0H92L313 1257H418L317 696H1116L1214 1257Z" />
<glyph unicode="I" glyph-name="I" horiz-adv-x="428" d="M418 1257L197 0H92L313 1257H418Z" />
<glyph unicode="J" glyph-name="J" horiz-adv-x="772" d="M-10 68L10 176Q117 80 244 80Q365 80 429 149T524 387L678 1257H782L627 385Q591 172 496 77T236 -18Q160 -18 94 8T-10 68Z" />
<glyph unicode="K" glyph-name="K" horiz-adv-x="1095" d="M418 1257L315 684L1044 1257H1190L406 643L987 0H856L303 608L197 0H92L313 1257H418Z" />
<glyph unicode="L" glyph-name="L" horiz-adv-x="1030" d="M92 0L313 1257H418L213 96H895L879 0H92Z" />
<glyph unicode="M" glyph-name="M" horiz-adv-x="1482" d="M725 289H719L381 1067L193 0H92L313 1257H399L748 457L1382 1257H1473L1251 0H1149L1333 1055L725 289Z" />
<glyph unicode="N" glyph-name="N" horiz-adv-x="1261" d="M1251 1257L1030 0H961L385 1106L193 0H92L313 1257H412L963 195L1151 1257H1251Z" />
<glyph unicode="O" glyph-name="O" horiz-adv-x="1269" d="M594 80Q712 80 812 133T979 276T1083 482T1120 723Q1120 922 1016 1050T737 1178Q643 1178 560 1144T414 1048T306 905T237 730T213 535Q213 335 316 208T594 80ZM594 -18Q379 -18 243 135T106 535Q106
646 134 754T217 957T348 1122T524 1235T737 1276Q952 1276 1089 1123T1227 723Q1227 583 1182 450T1056 213T855 46T594 -18Z" />
<glyph unicode="P" glyph-name="P" horiz-adv-x="1083" d="M641 543H291L197 0H92L313 1257H764Q926 1257 1015 1180T1104 954Q1104 759 976 651T641 543ZM401 1163L307 639H655Q814 639 906 720T999 950Q999 1051 934 1107T743 1163H401Z" />
<glyph unicode="Q" glyph-name="Q" horiz-adv-x="1269" d="M600 -18Q384 -18 247 136T109 541Q109 652 136 760T218 961T347 1124T521 1235T733 1276Q950 1276 1088 1122T1227 717Q1227 537 1156 375T958 109L1032 -14L954 -63L883 55Q756 -18 600 -18ZM600 80Q731
80 834 139L745 289L823 336L907 193Q1009 282 1064 421T1120 717Q1120 919 1014 1048T733 1178Q616 1178 517 1125T352 982T251 779T215 541Q215 339 321 210T600 80Z" />
<glyph unicode="R" glyph-name="R" horiz-adv-x="1116" d="M600 555H293L197 0H92L313 1257H739Q904 1257 998 1180T1092 956Q1092 786 987 682T707 559L987 0H877L600 555ZM399 1163L309 647H645Q804 647 895 728T987 954Q987 1054 919 1108T723 1163H399Z" />
<glyph unicode="S" glyph-name="S" horiz-adv-x="970" d="M33 115L55 231Q198 78 412 78Q566 78 662 153T758 354Q758 425 714 470T571 561L399 641Q353 662 319 683T250 736T195 813T176 913Q176 1002 214 1073T314 1188T452 1253T606 1276Q817 1276 948 1165L928
1053Q798 1180 606 1180Q518 1180 446 1153T326 1066T279 922Q279 854 324 811T463 725L643 641Q754 588 807 523T860 365Q860 249 800 161T638 28T412 -18Q287 -18 189 19T33 115Z" />
<glyph unicode="T" glyph-name="T" horiz-adv-x="1150" d="M188 1161L205 1257H1231L1212 1161H752L549 0H444L647 1161H188Z" />
<glyph unicode="U" glyph-name="U" horiz-adv-x="1239" d="M571 -18Q379 -18 259 87T139 385Q139 430 150 504L283 1257H387L256 510Q246 445 246 399Q246 242 335 160T571 78Q746 78 859 185T1010 510L1141 1257H1245L1112 496Q1067 243 925 113T571 -18Z" />
<glyph unicode="V" glyph-name="V" horiz-adv-x="1181" d="M537 0H442L199 1257H303L514 145L1176 1257H1286L537 0Z" />
<glyph unicode="W" glyph-name="W" horiz-adv-x="1556" d="M887 1257H973L1057 176L1559 1257H1663L1075 0H981L893 1071L391 0H297L199 1257H299L381 176L887 1257Z" />
<glyph unicode="X" glyph-name="X" horiz-adv-x="1116" d="M1206 1257L649 635L971 0H860L580 557L82 0H-41L537 645L225 1257H334L606 723L1083 1257H1206Z" />
<glyph unicode="Y" glyph-name="Y" horiz-adv-x="1095" d="M580 633L1085 1257H1202L618 537L524 0H420L514 537L182 1257H293L580 633Z" />
<glyph unicode="Z" glyph-name="Z" horiz-adv-x="1058" d="M915 96L899 0H-29V8L965 1161H238L256 1257H1161V1249L168 96H915Z" />
<glyph unicode="[" glyph-name="bracketleft" horiz-adv-x="636" d="M397 1239L166 -80H489L473 -172H53L317 1331H737L721 1239H397Z" />
<glyph unicode="\" glyph-name="backslash" horiz-adv-x="626" d="M285 1331L528 -172H432L188 1331H285Z" />
<glyph unicode="]" glyph-name="bracketright" horiz-adv-x="636" d="M283 -80L514 1239H190L207 1331H627L362 -172H-57L-41 -80H283Z" />
<glyph unicode="^" glyph-name="asciicircum" horiz-adv-x="657" d="M410 1257H496L666 887H561L440 1151L223 887H109L410 1257Z" />
<glyph unicode="_" glyph-name="underscore" horiz-adv-x="720" d="M-49 -178L-33 -86H606L590 -178H-49Z" />
<glyph unicode="`" glyph-name="grave" horiz-adv-x="1024" d="M627 1065H537L406 1331H504L627 1065Z" />
<glyph unicode="a" glyph-name="a" horiz-adv-x="892" d="M657 440L690 627Q694 663 694 676Q694 751 646 793T508 836Q363 836 221 750L240 852Q294 886 370 907T524 928Q652 928 723 866T795 694Q795 653 788 631L680 0H580L594 86Q554 44 483 15T336 -14Q207
-14 122 57T37 242Q37 332 89 402T224 509T403 545Q487 545 555 513T657 440ZM616 207L637 324Q622 380 556 419T403 459Q336 459 277 437T177 365T135 244Q135 166 197 119T350 72Q438 72 510 109T616 207Z" />
<glyph unicode="b" glyph-name="b" horiz-adv-x="1009" d="M193 139L168 0H68L301 1331H401L303 770Q357 838 436 883T602 928Q765 928 848 822T932 547Q932 401 875 273T708 64T459 -18Q364 -18 293 28T193 139ZM283 649L213 256Q244 169 307 123T457 76Q546
76 619 117T736 227T805 378T829 547Q829 679 768 756T588 834Q413 834 283 649Z" />
<glyph unicode="c" glyph-name="c" horiz-adv-x="825" d="M692 156L674 45Q577 -18 444 -18Q275 -18 177 87T78 373Q78 612 220 770T569 928Q642 928 707 906T813 842L795 737Q702 836 569 836Q494 836 424 804T299 714T211 568T178 373Q178 238 252 156T453 74Q585
74 692 156Z" />
<glyph unicode="d" glyph-name="d" horiz-adv-x="1009" d="M817 770L915 1331H1016L782 0H682L707 139Q653 72 574 27T408 -18Q245 -18 162 87T78 362Q78 468 112 569T205 751T355 879T551 928Q646 928 716 882T817 770ZM727 260L797 653Q766 740 703 787T553
834Q464 834 391 792T273 680T204 529T180 362Q180 231 242 154T422 76Q598 76 727 260Z" />
<glyph unicode="e" glyph-name="e" horiz-adv-x="909" d="M836 446H182Q178 398 178 371Q178 230 254 150T459 70Q611 70 735 162L715 55Q610 -18 449 -18Q273 -18 176 87T78 371Q78 452 97 531T157 682T251 808T383 895T547 928Q696 928 773 838T850 588Q850
534 836 446ZM545 838Q419 838 328 752T199 530H748Q754 564 754 596Q754 664 734 716T666 803T545 838Z" />
<glyph unicode="f" glyph-name="f" horiz-adv-x="528" d="M707 1331L690 1239Q651 1257 604 1257Q526 1257 472 1207T401 1063L375 909H588L571 821H358L215 0H115L258 821H111L127 909H274L303 1073Q325 1198 406 1274T600 1350Q661 1350 707 1331Z" />
<glyph unicode="g" glyph-name="g" horiz-adv-x="999" d="M692 57L711 156Q656 90 578 46T414 2Q250 2 164 105T78 375Q78 479 112 578T205 755T355 880T551 928Q647 928 716 882T817 770L842 909H942L793 59Q755 -150 633 -258T330 -367Q240 -367 159 -340T33
-272L51 -164Q153 -274 330 -274Q473 -274 567 -192T692 57ZM731 279L797 655Q768 740 704 787T553 834Q464 834 391 793T273 684T204 537T180 375Q180 247 244 171T428 94Q597 94 731 279Z" />
<glyph unicode="h" glyph-name="h" horiz-adv-x="989" d="M621 928Q747 928 817 858T887 672Q887 640 881 602L776 0H676L776 588Q782 621 782 651Q782 736 736 785T596 834Q500 834 415 778T281 637L168 0H68L301 1331H401L301 762Q358 834 442 881T621 928Z" />
<glyph unicode="i" glyph-name="i" horiz-adv-x="393" d="M328 909L168 0H68L227 909H328ZM395 1186Q395 1157 375 1137T326 1116T277 1136T256 1186Q256 1214 276 1234T326 1255T375 1235T395 1186Z" />
<glyph unicode="j" glyph-name="j" horiz-adv-x="393" d="M-176 -354L-160 -262Q-137 -276 -106 -276Q-43 -276 -7 -242T45 -121L227 909H328L145 -131Q103 -367 -106 -367Q-146 -367 -176 -354ZM395 1186Q395 1157 375 1137T326 1116T277 1136T256 1186Q256 1214
276 1234T326 1255T375 1235T395 1186Z" />
<glyph unicode="k" glyph-name="k" horiz-adv-x="872" d="M358 483L772 0H653L250 467L168 0H68L301 1331H401L258 512L782 909H924L358 483Z" />
<glyph unicode="l" glyph-name="l" horiz-adv-x="393" d="M401 1331L168 0H68L301 1331H401Z" />
<glyph unicode="m" glyph-name="m" horiz-adv-x="1460" d="M813 756Q953 928 1120 928Q1237 928 1297 862T1358 684Q1358 658 1350 604L1245 0H1145L1245 586Q1253 623 1253 664Q1253 834 1098 834Q1009 834 937 778T819 637L707 0H606L707 586Q715 623 715 664Q715
834 559 834Q471 834 400 779T281 637L168 0H68L227 909H328L303 766Q424 928 590 928Q682 928 739 881T813 756Z" />
<glyph unicode="n" glyph-name="n" horiz-adv-x="989" d="M68 0L227 909H328L303 762Q360 834 443 881T621 928Q747 928 817 858T887 672Q887 640 881 602L776 0H676L776 588Q782 621 782 651Q782 736 736 785T596 834Q500 834 415 778T281 637L168 0H68Z" />
<glyph unicode="o" glyph-name="o" horiz-adv-x="964" d="M432 72Q584 72 684 201T784 539Q784 675 716 756T532 838Q381 838 281 708T180 371Q180 235 248 154T432 72ZM432 -18Q268 -18 173 88T78 371Q78 612 209 770T532 928Q697 928 792 822T887 539Q887 297
756 140T432 -18Z" />
<glyph unicode="p" glyph-name="p" horiz-adv-x="1009" d="M193 139L106 -348H6L227 909H328L303 770Q357 838 436 883T602 928Q765 928 848 822T932 547Q932 401 875 273T708 64T459 -18Q364 -18 293 28T193 139ZM283 649L213 256Q244 169 307 123T457 76Q546
76 619 117T736 227T805 378T829 547Q829 679 768 756T588 834Q413 834 283 649Z" />
<glyph unicode="q" glyph-name="q" horiz-adv-x="1007" d="M817 770L842 909H942L721 -348H621L707 139Q653 72 574 27T408 -18Q245 -18 162 87T78 362Q78 468 112 569T205 751T355 879T551 928Q646 928 716 882T817 770ZM727 260L797 653Q766 740 703 787T553
834Q464 834 391 792T273 680T204 529T180 362Q180 231 242 154T422 76Q598 76 727 260Z" />
<glyph unicode="r" glyph-name="r" horiz-adv-x="616" d="M653 915L637 815Q600 831 555 831Q473 831 401 778T281 635L168 0H68L227 909H328L303 764Q348 835 422 881T578 928Q623 928 653 915Z" />
<glyph unicode="s" glyph-name="s" horiz-adv-x="780" d="M27 84L47 195Q99 138 172 105T326 72Q428 72 496 118T565 258Q565 340 444 389L301 449Q215 485 171 531T127 655Q127 774 220 851T451 928Q607 928 723 831L705 727Q594 838 451 838Q358 838 294 791T229
666Q229 617 260 587T358 530L510 469Q666 407 666 268Q666 142 569 62T326 -18Q236 -18 156 12T27 84Z" />
<glyph unicode="t" glyph-name="t" horiz-adv-x="598" d="M403 821L260 0H160L303 821H109L125 909H319L360 1143H463L420 909H635L621 821H403Z" />
<glyph unicode="u" glyph-name="u" horiz-adv-x="985" d="M915 909L756 0H655L680 145Q622 74 539 28T362 -18Q237 -18 169 51T100 236Q100 271 106 307L211 909H313L209 319Q203 286 203 252Q203 168 248 121T385 74Q482 74 567 131T702 272L815 909H915Z" />
<glyph unicode="v" glyph-name="v" horiz-adv-x="884" d="M381 0H293L117 909H219L362 139L821 909H930L381 0Z" />
<glyph unicode="w" glyph-name="w" horiz-adv-x="1236" d="M737 909L799 160L1178 909H1280L815 0H729L664 752L289 0H201L117 909H211L283 160L655 909H737Z" />
<glyph unicode="x" glyph-name="x" horiz-adv-x="882" d="M911 909L500 461L745 0H641L434 391L78 0H-39L391 467L158 909H262L459 537L797 909H911Z" />
<glyph unicode="y" glyph-name="y" horiz-adv-x="884" d="M172 -348H68L289 20L117 909H219L362 141L819 909H930L172 -348Z" />
<glyph unicode="z" glyph-name="z" horiz-adv-x="851" d="M694 88L680 0H-20V8L692 821H180L197 909H874V901L162 88H694Z" />
<glyph unicode="{" glyph-name="braceleft" horiz-adv-x="684" d="M309 436L236 12Q220 -80 305 -80H537L520 -172H291Q208 -172 166 -119T139 18L213 440Q228 532 143 532H57L74 627H160Q247 627 262 719L336 1141Q349 1225 411 1278T555 1331H784L768 1239H537Q449
1239 434 1147L360 723Q343 624 252 578Q327 529 309 436Z" />
<glyph unicode="|" glyph-name="bar" horiz-adv-x="419" d="M59 -172L324 1331H420L156 -172H59Z" />
<glyph unicode="}" glyph-name="braceright" horiz-adv-x="684" d="M416 723L489 1147Q505 1239 420 1239H188L205 1331H434Q517 1331 559 1278T586 1141L512 719Q497 627 582 627H668L651 532H565Q478 532 463 440L389 18Q376 -66 314 -119T170 -172H-59L-43
-80H188Q276 -80 291 12L365 436Q382 534 473 582Q397 629 416 723Z" />
<glyph unicode="~" glyph-name="asciitilde" horiz-adv-x="831" d="M694 674H786Q766 565 708 503T563 440Q527 440 495 455T440 492T394 536T348 573T297 588Q249 588 216 551T170 449H78Q98 556 156 618T301 680Q345 680 384 658T447 608T504 558T569 535Q617
535 649 572T694 674Z" />
</font>
</defs>
</svg>
